<svg width="109" height="132" viewBox="0 0 109 132" fill="none" xmlns="http://www.w3.org/2000/svg">
<path d="M0.293091 112.931L19.6269 85.6469C27.5772 93.9586 38.4788 98.1145 52.3317 98.1145C56.7887 98.1145 60.2821 97.2713 62.8117 95.5848C65.4618 93.7779 66.7869 91.3085 66.7869 88.1766C66.7869 84.9241 65.0402 82.3343 61.5469 80.4069C58.174 78.3591 53.6568 77.3352 47.9952 77.3352H32.8172V48.9669H47.0917C50.7055 48.9669 53.6568 48.1839 55.9455 46.6179C58.3547 44.9315 59.5593 42.5825 59.5593 39.571C59.5593 37.5232 58.5956 35.9572 56.6683 34.8731C54.7409 33.6685 52.6931 33.0662 50.5248 33.0662C46.1883 33.0662 41.7915 33.9697 37.3345 35.7766C32.8775 37.463 29.5046 39.0892 27.2158 40.6552C25.0476 42.2212 23.843 43.2451 23.6021 43.7269L1.37723 20.5986C8.48435 13.1301 16.254 7.82989 24.6862 4.69794C33.2388 1.56598 43.1165 0 54.3193 0C62.3901 0 69.8586 1.2046 76.7248 3.6138C83.591 5.90254 89.3731 9.69702 94.071 14.9972C98.769 20.2975 101.118 26.6216 101.118 33.9697C101.118 38.9085 99.6122 43.8474 96.6007 48.7862C93.5892 53.7251 89.7345 57.2184 85.0365 59.2662C91.3004 60.9526 96.7211 64.7471 101.299 70.6497C105.997 76.4317 108.346 83.1172 108.346 90.7062C108.346 102.029 103.527 111.606 93.8903 119.436C84.2536 127.266 71.0632 131.181 54.3193 131.181C50.4646 131.181 46.7303 131 43.1165 130.639C39.6232 130.398 36.3708 129.916 33.3593 129.193C30.4683 128.591 27.7579 127.989 25.2283 127.386C22.8191 126.663 20.5303 125.82 18.3621 124.857C16.1938 123.772 14.3267 122.869 12.7607 122.146C11.1947 121.303 9.62872 120.339 8.06275 119.255C6.61723 118.171 5.53309 117.328 4.81033 116.726C4.08757 116.123 3.18412 115.4 2.09999 114.557C1.01585 113.594 0.413551 113.051 0.293091 112.931Z" fill="white"/>
</svg>
