<svg width="27" height="40" viewBox="0 0 27 40" fill="none" xmlns="http://www.w3.org/2000/svg">
<path d="M13.3331 0C20.685 0 26.6665 5.98149 26.6665 13.3334C26.6665 15.5404 26.1147 17.7287 25.0657 19.6696L14.0623 39.5703C13.9158 39.8356 13.6367 40 13.3331 40C13.0296 40 12.7505 39.8356 12.604 39.5703L1.5965 19.663C0.551582 17.7287 -0.000213623 15.5403 -0.000213623 13.3333C-0.000213623 5.98148 5.98127 0 13.3331 0ZM13.3331 20C17.0091 20 19.9998 17.0093 19.9998 13.3334C19.9998 9.65742 17.0091 6.66672 13.3331 6.66672C9.65721 6.66672 6.6665 9.65742 6.6665 13.3334C6.6665 17.0093 9.65721 20 13.3331 20Z" fill="#58AD3A"/>
</svg>
