<svg width="105" height="131" viewBox="0 0 105 131" fill="none" xmlns="http://www.w3.org/2000/svg">
<path d="M0.789474 26.6596C14.5177 8.88655 32.6585 0 55.2119 0C70.411 0 82.3619 3.86105 91.0646 11.5832C99.8898 19.1827 104.302 28.437 104.302 39.346C104.302 44.8618 103.506 50.0098 101.912 54.7902C100.441 59.5705 97.9287 64.2283 94.374 68.7635C90.8194 73.2987 87.7551 76.9146 85.1811 79.6112C82.607 82.1853 78.8073 85.8012 73.7818 90.459L66.6112 97.0779H103.383V130.724H7.40842V105.168L32.2295 81.4498C36.5195 77.4049 39.5839 74.4632 41.4225 72.6246C43.3836 70.6634 46.3254 67.4765 50.2477 63.0639C54.2926 58.6512 57.2344 54.6676 59.073 51.113C61.0342 47.4358 62.0147 44.1263 62.0147 41.1846C62.0147 36.1591 59.073 33.6463 53.1895 33.6463C48.2866 33.6463 43.5062 34.9946 38.8484 37.6912C34.3132 40.2653 31.0037 42.8393 28.92 45.4133L25.7944 49.2744L0.789474 26.6596Z" fill="white"/>
</svg>
