<svg width="70" height="87" viewBox="0 0 70 87" fill="none" xmlns="http://www.w3.org/2000/svg">
<path d="M44.2583 31.7304C45.7525 30.7746 47.1143 29.9312 48.5896 28.9753C48.5896 34.4105 48.5896 39.7332 48.5896 45.0559C48.6463 45.0746 48.7031 45.0934 48.7598 45.0934C49.2894 44.5124 49.819 43.9314 50.3675 43.3691C52.7884 40.839 55.7579 39.3209 59.2002 38.7586C61.2997 38.4213 63.3802 38.6274 65.385 39.2834C66.6901 39.7145 67.9573 40.258 69.1867 40.8952C70.1513 41.3825 70.1891 41.8698 69.6028 42.8069C68.5058 44.5124 67.3899 46.2179 66.274 47.9234C64.6474 50.4161 63.0965 52.965 61.3942 55.4014C59.1624 58.5876 56.4199 61.3052 53.1667 63.5167C49.5353 66.0094 45.5823 67.6587 41.1943 68.2771C38.3194 68.6895 35.4445 69.0643 32.5507 68.7457C31.9076 68.6707 31.2456 68.5208 30.6593 68.2584C29.9784 67.9585 29.9784 67.3026 30.6404 66.9465C31.0754 66.7028 31.605 66.5716 32.0967 66.5154C34.4988 66.2343 36.8441 65.747 39.0948 64.8849C44.1259 62.9544 47.8898 59.5809 50.5377 54.9704C51.3132 53.621 51.8806 52.1591 52.5237 50.7534C52.5615 50.6597 52.6182 50.566 52.6182 50.4536C52.5993 50.2287 52.5615 50.0038 52.5237 49.7789C52.2967 49.8538 51.9941 49.8538 51.8238 50.0038C50.3107 51.3532 48.8165 52.7026 47.3413 54.0708C45.9795 55.3077 44.5042 56.4135 42.6696 56.8633C42.0832 57.0133 41.4402 57.032 40.8349 56.957C39.7568 56.8258 39.3975 55.795 40.1351 55.0079C40.5701 54.5393 41.0997 54.0895 41.6482 53.7709C43.237 52.8525 44.2961 51.4469 45.4121 50.0787C46.1308 49.1979 46.301 48.2233 46.2821 47.1175C46.2253 42.8256 46.2632 38.5337 46.2632 34.2606C46.2632 34.0169 46.2632 33.7733 46.2632 33.4172C45.9606 33.5671 45.7714 33.6608 45.5823 33.7733C39.2272 37.6903 32.8722 41.6261 26.5172 45.5432C26.0254 45.8431 25.8174 46.1804 25.8363 46.7614C25.893 48.0171 25.8363 49.2728 25.8741 50.5098C25.893 50.8284 26.0254 51.2033 26.2335 51.4282C27.4629 52.7776 28.6544 54.1832 30.3377 55.0266C30.6593 55.1765 31.0186 55.6264 31.0186 55.945C31.0376 56.4323 30.5269 56.6384 30.054 56.7509C28.1059 57.1632 26.3848 56.526 24.8149 55.5139C23.7179 54.8204 22.7533 53.9396 21.7698 53.0962C20.6161 52.1029 19.5001 51.0533 18.3653 50.0413C18.2518 49.9288 18.1005 49.8351 17.9492 49.7789C17.6277 49.6477 17.344 49.6852 17.4007 50.135C17.4385 50.4161 17.4953 50.6972 17.6277 50.9409C19.5001 54.1082 22.1859 56.4697 25.458 58.1003C27.9546 59.356 30.6593 60.1244 33.4396 60.4805C35.1986 60.7054 36.9765 60.8179 38.7355 60.9865C39.2462 61.0428 39.946 61.0615 40.0216 61.605C40.0595 61.8862 39.492 62.4484 39.0948 62.5983C37.9411 63.0294 36.7495 63.3855 35.539 63.6292C30.7917 64.6412 26.1011 64.3413 21.3915 63.2356C18.214 62.5046 15.2824 61.2864 12.6723 59.3747C10.762 57.9691 9.34342 56.0574 8.05728 54.1083C6.61983 51.9155 5.25804 49.6664 3.87733 47.4174C3.36666 46.5927 2.95055 45.7306 2.40205 44.9247C1.66442 43.8189 0.832208 42.7694 0 41.6261C0.094569 41.5512 0.264793 41.42 0.453931 41.3075C2.51554 39.9581 4.82302 39.4146 7.24399 39.1709C9.7217 38.9273 12.1238 39.2084 14.4312 40.108C15.4148 40.5016 16.3604 41.0451 17.2305 41.6449C19.4623 43.2005 21.3537 45.1121 23.0181 47.2487C23.0938 47.3424 23.1883 47.4361 23.264 47.5111C23.2829 47.5298 23.3396 47.5298 23.491 47.5486C23.491 46.7239 23.5288 45.918 23.472 45.0934C23.4531 44.6436 23.6233 44.3999 24.0016 44.175C25.4958 43.2754 26.9522 42.3571 28.4464 41.4762C28.8625 41.2325 28.8625 40.9139 28.8625 40.5391C28.8625 31.9366 28.8625 23.3528 28.8625 14.7502C28.8625 14.3754 28.8625 14.0193 28.8625 13.457C30.054 14.2817 31.1321 15.0313 32.3426 15.8747C32.3426 15.4999 32.3426 15.275 32.3426 15.0313C32.3426 11.5641 32.3615 8.09683 32.3237 4.62957C32.3237 4.14228 32.475 3.91738 32.9289 3.71121C35.4067 2.5867 37.8844 1.4247 40.3621 0.281442C40.5512 0.187733 40.7403 0.112765 41.0808 -0.0371704C41.0808 0.675023 41.0808 1.29351 41.0808 1.91199C41.0808 8.43418 41.0619 14.9564 41.0808 21.4786C41.0808 21.7597 41.2888 22.1345 41.5347 22.3219C42.2724 22.9029 43.0667 23.4465 43.8611 23.9712C44.1827 24.1961 44.2961 24.421 44.2961 24.8334C44.2583 27.0824 44.2583 29.3127 44.2583 31.7304ZM31.2645 18.1987C31.2645 25.4144 31.2645 32.4988 31.2645 39.677C31.5104 39.5458 31.6995 39.4896 31.8698 39.3771C34.9716 37.4654 38.0735 35.535 41.1943 33.6233C41.5536 33.3984 41.705 33.1548 41.705 32.7425C41.686 30.5122 41.686 28.2819 41.705 26.0328C41.705 25.6018 41.5347 25.3581 41.2132 25.1332C38.395 23.1653 35.5769 21.1787 32.7776 19.192C32.3048 18.8734 31.813 18.5736 31.2645 18.1987ZM38.6598 20.3728C38.6598 14.7315 38.6598 9.25883 38.6598 3.69247C37.3548 4.3297 36.1443 4.9107 34.9338 5.52918C34.8014 5.60415 34.7258 5.86654 34.7258 6.05396C34.7068 9.76486 34.7068 13.4758 34.7258 17.1867C34.7258 17.3741 34.8014 17.6365 34.9149 17.7302C36.1065 18.5923 37.3169 19.4357 38.6598 20.3728Z" fill="white"/>
<path d="M46.3577 74.1993C46.0551 75.0239 45.7714 75.8485 45.4688 76.6732C45.3364 77.0293 45.2229 77.3666 45.0905 77.7227C44.7501 78.6036 44.6933 78.6411 43.5963 78.3974C43.8611 77.6478 44.1259 76.8981 44.3907 76.1484C44.8068 74.9489 45.2418 73.7495 45.639 72.55C45.7525 72.2126 45.9038 72.0252 46.301 72.0627C46.6414 72.1002 47.0197 71.969 47.2089 72.475C47.8708 74.4242 48.5706 76.3733 49.2515 78.3225C48.4193 78.6786 48.0789 78.5474 47.7952 77.7602C47.3791 76.5607 46.963 75.38 46.5469 74.1805C46.4712 74.1993 46.4145 74.1993 46.3577 74.1993Z" fill="white"/>
<path d="M15.1311 78.3975C13.9584 78.6224 13.9206 78.5849 13.5991 77.6103C13.2019 76.4483 12.7858 75.3051 12.2373 74.1618C12.067 74.6491 11.8968 75.1364 11.7077 75.6237C11.4618 76.2984 11.2159 76.9731 10.989 77.6478C10.6674 78.6036 10.6107 78.6411 9.53259 78.4162C9.57042 78.2663 9.57042 78.1164 9.62716 77.9664C10.2702 76.1485 10.8944 74.3305 11.5753 72.5313C11.6509 72.3438 11.9346 72.1189 12.1238 72.1189C12.4075 72.1002 12.8993 72.1939 12.9749 72.3626C13.7125 74.3305 14.4124 76.3359 15.1311 78.3975Z" fill="white"/>
<path d="M18.1951 72.7749C18.8004 73.8057 19.4056 74.8365 19.9919 75.8673C20.0487 75.8485 20.0865 75.8485 20.1432 75.8298C20.1432 74.6116 20.1432 73.3746 20.1432 72.1002C20.5783 72.1002 20.9376 72.1002 21.3726 72.1002C21.3726 72.55 21.3726 72.9623 21.3726 73.3934C21.3726 74.8927 21.3915 76.3733 21.3537 77.8727C21.3537 78.0788 21.1835 78.4537 21.1078 78.4537C20.7485 78.4537 20.2 78.4537 20.0676 78.2288C19.3489 77.1605 18.668 76.0547 18.1573 74.874C17.8925 74.2742 18.0438 73.5245 18.006 72.8311C18.0627 72.8124 18.1384 72.7936 18.1951 72.7749Z" fill="white"/>
<path d="M57.5547 86.8313C57.1386 86.8313 56.7792 86.8313 56.3631 86.8313C56.3631 85.1445 56.3442 83.514 56.3821 81.8834C56.401 81.2837 56.2118 81.0588 55.6255 81.1338C55.4175 81.1525 55.2094 81.1338 55.0013 81.1338C54.4907 81.1712 54.3772 80.9276 54.5474 80.459C56.1551 80.459 57.7439 80.459 59.3894 80.459C59.5407 80.8901 59.5028 81.1338 58.9354 81.1338C57.5547 81.1525 57.5547 81.1712 57.5547 82.5394C57.5547 83.9638 57.5547 85.3694 57.5547 86.8313Z" fill="white"/>
<path d="M63.4747 72.0814C65.1202 72.0814 66.7279 72.0814 68.3356 72.0814C68.4869 72.5312 68.4302 72.7561 67.9006 72.7561C66.501 72.7936 66.501 72.8124 66.501 74.218C66.501 75.6049 66.501 76.9918 66.501 78.4349C66.0849 78.4349 65.7444 78.4349 65.3094 78.4349C65.3094 76.5607 65.3094 74.7053 65.3094 72.7561C64.8176 72.7561 64.3826 72.7374 63.9665 72.7561C63.4747 72.7936 63.3234 72.5875 63.4747 72.0814Z" fill="white"/>
<path d="M37.9222 80.3654C37.9411 80.5528 37.96 80.7589 37.96 80.9464C37.96 82.427 37.96 83.9076 37.96 85.3694C37.96 86.1753 37.6385 86.6252 36.863 86.7938C35.8606 87 34.896 86.925 34.007 86.3628C34.1583 85.6131 34.2907 85.5569 34.9527 85.7818C35.1608 85.8567 35.3877 85.9317 35.6147 85.9692C36.3712 86.0816 36.7684 85.7818 36.7874 85.0134C36.8063 83.7389 36.8063 82.4645 36.8063 81.19C36.7874 80.1967 36.8063 80.1779 37.9222 80.3654Z" fill="white"/>
<path d="M40.9673 72.0814C41.3834 72.0814 41.7049 72.0814 42.0832 72.0814C42.1021 72.2501 42.14 72.4 42.14 72.55C42.14 74.3304 42.121 76.1109 42.1589 77.9101C42.1589 78.36 42.0265 78.5099 41.5536 78.5099C41.0619 78.5286 40.9484 78.3225 40.9673 77.8914C40.9862 77.2917 40.9484 76.7107 40.9862 76.1109C41.0051 75.6986 40.8349 75.5674 40.4377 75.5861C39.946 75.6049 39.4353 75.6049 38.9435 75.5674C38.8111 75.5487 38.6787 75.3425 38.5652 75.2301C38.6976 75.1176 38.8111 74.9114 38.9435 74.8927C39.3596 74.8552 39.7757 74.8365 40.1918 74.874C40.7971 74.9302 41.0619 74.7615 41.0051 74.1055C40.9295 73.4496 40.9673 72.7936 40.9673 72.0814Z" fill="white"/>
<path d="M23.7557 86.7938C22.5642 86.9813 22.5642 86.9813 22.0724 86.0629C21.8833 85.7256 21.732 85.3507 21.5239 85.0321C21.3726 84.8259 21.1078 84.7135 20.9187 84.5448C20.8052 84.4324 20.6539 84.2449 20.6539 84.095C20.6539 83.9826 20.843 83.7951 20.9754 83.7764C22.0535 83.589 22.375 83.2516 22.3183 82.3708C22.2615 81.6211 21.8454 81.3025 20.8241 81.2462C20.7863 81.2462 20.7484 81.2275 20.6539 81.2088C20.6539 80.9838 20.6539 80.7402 20.6539 80.5153C22.5263 80.1967 23.8125 81.3774 23.3775 83.1017C23.2829 83.4765 22.9614 83.8514 22.6776 84.1325C22.4129 84.3761 22.3939 84.5261 22.5642 84.8072C22.9614 85.4257 23.3396 86.0816 23.7557 86.7938Z" fill="white"/>
<path d="M29.184 80.3654C30.3755 80.3841 31.2077 80.9838 31.6049 82.2021C31.9832 83.3641 31.9265 84.5073 31.378 85.6131C30.9619 86.4565 30.0918 86.9438 29.2029 86.8313C29.1083 86.419 29.0705 86.0816 29.619 85.8567C29.8838 85.7443 30.1486 85.4444 30.281 85.1633C30.7727 84.1325 30.7538 83.0642 30.2621 82.0146C30.1486 81.771 29.9216 81.4899 29.6757 81.4149C29.0705 81.2087 29.0894 80.8339 29.184 80.3654Z" fill="white"/>
<path d="M28.8814 80.3466C28.9759 80.8339 29.0516 81.2837 28.3896 81.4336C28.314 81.4524 28.2572 81.5274 28.1816 81.5648C27.1791 82.4457 27.198 85.3694 28.5788 85.913C28.9759 86.0629 29.0138 86.3815 28.8814 86.6439C28.8057 86.7751 28.4274 86.8501 28.2194 86.7938C27.1413 86.5314 26.4037 85.5943 26.3091 84.2074C26.2524 83.5515 26.328 82.858 26.4982 82.2021C26.8009 81.0213 27.5574 80.4591 28.8814 80.3466Z" fill="white"/>
<path d="M59.2381 71.9877C59.3516 72.475 59.3705 72.9248 58.7274 73.0748C58.6517 73.0935 58.5761 73.1497 58.5193 73.206C57.5358 74.0681 57.5547 77.0106 58.9354 77.5916C59.1624 77.6853 59.2381 78.0976 59.4083 78.3975C57.8195 78.6786 56.8171 77.4229 56.628 75.8486C56.4388 73.8994 57.2143 72.0065 59.2381 71.9877Z" fill="white"/>
<path d="M49.9324 80.3466C50.0459 80.8339 50.0838 81.2087 49.4974 81.4711C48.8165 81.7897 48.4193 83.1579 48.6274 84.17C48.7787 84.9197 48.9678 85.6318 49.7811 86.0067C49.9514 86.0817 49.9514 86.5127 50.027 86.7938C48.6274 86.9625 47.625 85.9505 47.4169 84.2449C47.19 82.1458 48.06 80.4591 49.9324 80.3466Z" fill="white"/>
<path d="M59.5785 78.4724C59.465 78.0226 59.4839 77.704 59.9568 77.4604C60.2594 77.3104 60.5242 76.9731 60.6755 76.6544C61.1105 75.6424 61.0916 74.6116 60.5998 73.637C60.4863 73.3934 60.2594 73.1122 60.0324 73.0373C59.4272 72.8124 59.4839 72.4375 59.6163 71.969C61.0727 72.0814 62.0373 72.9998 62.1319 74.5366C62.1886 75.3238 62.0562 76.1672 61.8481 76.9543C61.5644 77.9476 60.6187 78.5099 59.5785 78.4724Z" fill="white"/>
<path d="M25.3067 72.0814C25.4391 72.55 25.3067 72.8124 24.9473 73.1497C24.569 73.5245 24.3042 74.1056 24.2097 74.6303C24.0205 75.7548 24.134 76.8231 25.1554 77.629C25.3445 77.779 25.3256 78.1351 25.4201 78.4162C23.9638 78.5099 22.9046 77.1417 22.9235 75.2113C22.9424 73.0747 24.134 71.9502 25.3067 72.0814Z" fill="white"/>
<path d="M55.304 72.1377C54.9635 72.8311 54.6798 73.5246 54.2827 74.1618C53.5828 75.305 53.2046 76.5045 53.3937 77.8352C53.4504 78.3225 53.2802 78.5099 52.7506 78.5099C52.2211 78.5099 52.1832 78.2662 52.1454 77.8352C52.0508 76.7294 52.3535 75.7361 52.8263 74.7615C53.11 74.1805 53.337 73.562 53.6018 72.9436C54.0179 71.9128 54.0179 71.9128 55.304 72.1377Z" fill="white"/>
<path d="M19.2354 80.459C19.6325 80.459 19.973 80.459 20.3891 80.459C20.408 80.6839 20.4269 80.8901 20.4269 81.115C20.4269 82.7268 20.4269 84.3386 20.4269 85.9692C20.4269 86.9813 20.3134 87.0562 19.2354 86.7751C19.2354 84.6947 19.2354 82.6144 19.2354 80.459Z" fill="white"/>
<path d="M16.6252 72.0814C17.0224 72.0814 17.3629 72.0814 17.7601 72.0814C17.7601 74.1993 17.7601 76.2984 17.7601 78.4537C17.4007 78.4537 17.0413 78.4537 16.6252 78.4537C16.6252 76.3358 16.6252 74.2367 16.6252 72.0814Z" fill="white"/>
<path d="M12.6533 80.4403C13.0316 80.4403 13.3721 80.4403 13.7314 80.4403C13.7503 80.5902 13.7882 80.7214 13.7882 80.8526C13.7882 82.6893 13.7693 84.526 13.7882 86.3627C13.7882 86.7938 13.599 86.8875 13.2397 86.8688C12.9181 86.85 12.5588 86.9437 12.5777 86.419C12.5966 84.526 12.5966 82.6144 12.5966 80.7214C12.5966 80.6465 12.6344 80.5715 12.6533 80.4403Z" fill="white"/>
<path d="M8.24642 72.0814C7.88705 72.7936 7.62226 73.4496 7.24398 74.0493C6.50635 75.2113 6.14698 76.467 6.33612 77.8352C6.41178 78.36 6.1659 78.4912 5.67414 78.4912C5.22021 78.4912 5.16347 78.3225 5.10672 77.9102C4.86084 76.2234 5.76871 74.874 6.31721 73.4121C6.37395 73.2809 6.4496 73.1497 6.50635 73.0185C6.94136 71.9877 6.94136 71.9877 8.24642 72.0814Z" fill="white"/>
<path d="M38.2815 72.1002C38.2815 72.7186 38.2815 73.3184 38.2815 73.9369C38.2815 75.2675 38.2626 76.5982 38.2815 77.9289C38.2815 78.3412 38.187 78.5286 37.733 78.5099C37.3548 78.4912 37.071 78.4912 37.071 77.9664C37.09 76.036 37.09 74.0868 37.09 72.1002C37.5061 72.1002 37.8654 72.1002 38.2815 72.1002Z" fill="white"/>
<path d="M40.7782 80.459C41.2132 80.459 41.5537 80.459 41.9887 80.459C41.9887 80.9089 41.9887 81.3587 41.9887 81.7897C41.9887 83.3266 41.9887 84.8634 42.0076 86.3815C42.0076 86.7001 41.913 86.9063 41.5537 86.85C41.27 86.8126 40.7971 87.0562 40.7971 86.5127C40.7782 84.5261 40.7782 82.5207 40.7782 80.459Z" fill="white"/>
<path d="M29.5812 72.0814C29.9595 72.0814 30.2999 72.0814 30.716 72.0814C30.716 72.6812 30.716 73.2809 30.716 73.8619C30.716 75.2113 30.6971 76.5607 30.7349 77.9289C30.7349 78.3412 30.6215 78.5099 30.1675 78.5099C29.7703 78.4912 29.5055 78.4724 29.5244 77.9476C29.5623 76.1484 29.5434 74.3305 29.5434 72.5312C29.5434 72.3813 29.5623 72.2501 29.5812 72.0814Z" fill="white"/>
<path d="M13.8828 83.8139C15.3013 83.6827 15.5661 83.4765 15.6228 82.6706C15.6796 81.696 15.4337 81.4524 14.0341 81.1712C14.0341 80.9651 14.0341 80.7402 14.0341 80.5153C15.0554 80.2904 16.02 80.6465 16.5496 81.4336C16.9657 82.0521 16.9279 83.0829 16.4361 83.7576C16.02 84.3386 14.9419 84.7697 14.2799 84.526C14.1097 84.4511 14.053 84.1137 13.8828 83.8139Z" fill="white"/>
<path d="M26.6684 75.9235C26.3469 75.9235 26.1199 75.961 25.9119 75.9048C25.7984 75.886 25.6282 75.6986 25.6471 75.6049C25.666 75.455 25.7984 75.2301 25.893 75.2113C26.4604 75.1739 27.0467 75.1739 27.6141 75.2113C27.7087 75.2113 27.86 75.4362 27.86 75.5487C27.8789 76.2047 27.8978 76.8606 27.86 77.5166C27.8411 77.6853 27.6898 77.9102 27.5385 78.0039C27.198 78.1913 26.8387 78.3975 26.4793 78.4537C26.2145 78.4912 25.7417 78.4162 25.666 78.2475C25.458 77.7602 25.9308 77.779 26.2334 77.6478C26.4226 77.5728 26.6117 77.3104 26.6495 77.1043C26.7252 76.7482 26.6684 76.3733 26.6684 75.9235Z" fill="white"/>
<path d="M5.04995 75.8298C4.4258 74.4991 3.8773 73.3184 3.3288 72.1564C3.38554 72.1002 3.42337 72.0627 3.44228 72.0627C4.61494 71.9877 4.61494 71.9877 5.04995 73.0935C5.16344 73.3559 5.23909 73.637 5.37149 73.8807C5.74976 74.5554 5.46606 75.0989 5.04995 75.8298Z" fill="white"/>
<path d="M52.1075 75.7924C51.5023 74.4992 50.9349 73.3184 50.3864 72.1377C50.4809 72.0814 50.4998 72.0815 50.5188 72.0815C51.6725 71.9877 51.6725 71.9877 52.1075 73.056C52.2021 73.2997 52.3156 73.5433 52.3912 73.8057C52.7317 74.7241 52.7317 74.7241 52.1075 75.7924Z" fill="white"/>
<path d="M35.3499 76.3921C34.3475 76.3921 33.4774 76.3921 32.5317 76.3921C32.5317 76.1109 32.5317 75.8298 32.5317 75.5299C33.4396 75.5299 34.3475 75.5299 35.3121 75.5299C35.3121 75.7923 35.331 76.0735 35.3499 76.3921Z" fill="white"/>
<path d="M42.2156 81.2275C42.2156 80.9276 42.2156 80.7027 42.2156 80.4216C43.0289 80.4216 43.8044 80.4028 44.5799 80.4403C44.6934 80.4403 44.9203 80.7027 44.9014 80.7964C44.8825 80.9463 44.6744 81.19 44.542 81.19C43.7855 81.2462 43.0289 81.2275 42.2156 81.2275Z" fill="white"/>
<path d="M42.2724 86.8688C42.0643 86.2503 42.2345 86.0254 42.8209 86.0629C43.3694 86.1004 43.9368 86.0816 44.4853 86.0629C44.7879 86.0629 44.9959 86.1566 44.9203 86.4752C44.8825 86.6252 44.6555 86.8313 44.5231 86.8501C43.7476 86.8875 42.9911 86.8688 42.2724 86.8688Z" fill="white"/>
<path d="M42.1778 83.2516C42.8776 83.2516 43.5018 83.2516 44.1259 83.2516C44.6744 83.2516 44.6744 83.2704 44.5988 83.9263C43.8233 83.9263 43.0478 83.9263 42.2345 83.9263C42.2156 83.7202 42.1967 83.5327 42.1778 83.2516Z" fill="white"/>
<path d="M27.4628 72.7186C27.1602 72.9623 26.99 73.4496 26.4226 73.0935C25.9876 72.8124 25.2878 72.7749 25.7795 71.8378C26.3469 72.0439 26.9143 72.2501 27.5007 72.4563C27.5007 72.55 27.4818 72.6437 27.4628 72.7186Z" fill="white"/>
<path d="M52.0319 81.19C51.7103 81.3212 51.351 81.6398 51.0862 81.5648C50.2351 81.3399 50.1783 81.1712 50.3675 80.2341C50.9349 80.459 51.4834 80.6839 52.013 80.8901C52.013 80.9838 52.013 81.0775 52.0319 81.19Z" fill="white"/>
<path d="M50.3864 87C50.1783 86.0816 50.2162 85.9504 51.0862 85.6881C51.3321 85.6131 51.7104 85.9317 52.0319 86.0629C52.0319 86.1566 52.0319 86.2691 52.013 86.3628C51.4645 86.5689 50.9349 86.7751 50.3864 87Z" fill="white"/>
<path d="M47.2845 77.0855C46.6982 77.0855 46.1686 77.0855 45.6012 77.0855C45.5823 76.6545 45.6768 76.3733 46.1308 76.4108C46.5847 76.467 47.2467 76.1859 47.2845 77.0855Z" fill="white"/>
<path d="M11.5185 77.1043C11.4618 76.5608 11.7076 76.4108 12.1427 76.4296C12.6155 76.4483 13.1451 76.3171 13.1262 77.1043C12.5966 77.1043 12.0859 77.1043 11.5185 77.1043Z" fill="white"/>
</svg>
