<svg width="40" height="40" viewBox="0 0 40 40" fill="none" xmlns="http://www.w3.org/2000/svg">
<path d="M13.4849 20.205L-0.000106812 28.73V11.32L13.4849 20.205Z" fill="#58AD3A"/>
<path d="M40 11.32V28.73L26.515 20.205L40 11.32Z" fill="#58AD3A"/>
<path d="M2.49981 6.25H37.4998C38.7473 6.25 39.7373 7.18 39.9248 8.3775L19.9998 21.505L0.0748024 8.3775C0.262302 7.18 1.2523 6.25 2.49981 6.25Z" fill="#58AD3A"/>
<path d="M15.7749 21.715L19.3124 24.045C19.5224 24.1825 19.7599 24.25 19.9999 24.25C20.2399 24.25 20.4774 24.1825 20.6874 24.045L24.2249 21.7125L39.9199 31.64C39.7274 32.8275 38.7424 33.75 37.4999 33.75H2.49992C1.25742 33.75 0.272415 32.8275 0.0799179 31.64L15.7749 21.715Z" fill="#58AD3A"/>
</svg>
