<svg width="24" height="40" viewBox="0 0 24 40" fill="none" xmlns="http://www.w3.org/2000/svg">
<path d="M3.58658 0H20.4173C22.0268 0 23.3271 1.30535 23.3271 2.91494V37.0888C23.3271 38.6934 22.0268 40 20.4173 40H3.58658C1.97951 40 0.67416 38.6947 0.67416 37.0888V2.91494C0.675423 1.30535 1.97951 0 3.58658 0ZM2.8569 32.409H21.1444V4.91715H2.8569V32.409ZM8.09976 2.95787H15.9028V2.10699H8.09849L8.09976 2.95787ZM4.76064 2.56904C4.76064 2.98059 5.09644 3.31387 5.50673 3.31387C5.91828 3.31387 6.25282 2.97933 6.25282 2.56904C6.25282 2.15875 5.91828 1.82421 5.50673 1.82421C5.09518 1.82294 4.76064 2.15749 4.76064 2.56904ZM8.44945 36.8944H15.5556V34.7079H8.44945V36.8944Z" fill="#58AD3A"/>
</svg>
